<mxfile host="Electron" agent="Mozilla/5.0 (Windows NT 10.0; Win64; x64) AppleWebKit/537.36 (KHTML, like Gecko) draw.io/26.2.15 Chrome/134.0.6998.205 Electron/35.2.1 Safari/537.36" version="26.2.15">
  <diagram name="PÃ¡gina-1" id="IMDnnX48N4NPNL2kxd7Q">
    <mxGraphModel dx="1268" dy="616" grid="1" gridSize="10" guides="1" tooltips="1" connect="1" arrows="1" fold="1" page="1" pageScale="1" pageWidth="827" pageHeight="1169" math="0" shadow="0">
      <root>
        <mxCell id="0" />
        <mxCell id="1" parent="0" />
        <mxCell id="-xSOWlBWt_rG__MBIkbI-3" value="DOCTOR" style="rounded=1;whiteSpace=wrap;html=1;absoluteArcSize=1;arcSize=14;strokeWidth=2;" vertex="1" parent="1">
          <mxGeometry x="65" y="130" width="180" height="100" as="geometry" />
        </mxCell>
        <mxCell id="-xSOWlBWt_rG__MBIkbI-5" value="RESPUESTA&lt;div&gt;SOLUCION&lt;/div&gt;" style="strokeWidth=2;html=1;shape=mxgraph.flowchart.start_2;whiteSpace=wrap;" vertex="1" parent="1">
          <mxGeometry x="70" y="390" width="170" height="170" as="geometry" />
        </mxCell>
        <mxCell id="-xSOWlBWt_rG__MBIkbI-6" value="REPORTA INCIDENCIAS" style="strokeWidth=2;html=1;shape=mxgraph.flowchart.start_2;whiteSpace=wrap;" vertex="1" parent="1">
          <mxGeometry x="315" y="390" width="170" height="170" as="geometry" />
        </mxCell>
        <mxCell id="-xSOWlBWt_rG__MBIkbI-7" value="CLIENTE" style="rounded=1;whiteSpace=wrap;html=1;absoluteArcSize=1;arcSize=14;strokeWidth=2;" vertex="1" parent="1">
          <mxGeometry x="310" y="130" width="180" height="100" as="geometry" />
        </mxCell>
        <mxCell id="-xSOWlBWt_rG__MBIkbI-8" value="ALMACEN" style="rounded=1;whiteSpace=wrap;html=1;absoluteArcSize=1;arcSize=14;strokeWidth=2;" vertex="1" parent="1">
          <mxGeometry x="580" y="425" width="180" height="100" as="geometry" />
        </mxCell>
        <mxCell id="-xSOWlBWt_rG__MBIkbI-9" style="edgeStyle=orthogonalEdgeStyle;rounded=0;orthogonalLoop=1;jettySize=auto;html=1;exitX=1;exitY=0.5;exitDx=0;exitDy=0;exitPerimeter=0;entryX=0;entryY=0.5;entryDx=0;entryDy=0;entryPerimeter=0;" edge="1" parent="1" source="-xSOWlBWt_rG__MBIkbI-5" target="-xSOWlBWt_rG__MBIkbI-6">
          <mxGeometry relative="1" as="geometry" />
        </mxCell>
        <mxCell id="-xSOWlBWt_rG__MBIkbI-10" style="edgeStyle=orthogonalEdgeStyle;rounded=0;orthogonalLoop=1;jettySize=auto;html=1;" edge="1" parent="1">
          <mxGeometry relative="1" as="geometry">
            <mxPoint x="314" y="450" as="sourcePoint" />
            <mxPoint x="240" y="450" as="targetPoint" />
            <Array as="points">
              <mxPoint x="314" y="450" />
            </Array>
          </mxGeometry>
        </mxCell>
        <mxCell id="-xSOWlBWt_rG__MBIkbI-11" style="edgeStyle=orthogonalEdgeStyle;rounded=0;orthogonalLoop=1;jettySize=auto;html=1;exitX=0;exitY=0.5;exitDx=0;exitDy=0;entryX=1;entryY=0.5;entryDx=0;entryDy=0;entryPerimeter=0;" edge="1" parent="1" source="-xSOWlBWt_rG__MBIkbI-8" target="-xSOWlBWt_rG__MBIkbI-6">
          <mxGeometry relative="1" as="geometry" />
        </mxCell>
        <mxCell id="-xSOWlBWt_rG__MBIkbI-13" style="edgeStyle=orthogonalEdgeStyle;rounded=0;orthogonalLoop=1;jettySize=auto;html=1;exitX=0.5;exitY=1;exitDx=0;exitDy=0;entryX=0.5;entryY=0;entryDx=0;entryDy=0;entryPerimeter=0;" edge="1" parent="1" source="-xSOWlBWt_rG__MBIkbI-7" target="-xSOWlBWt_rG__MBIkbI-6">
          <mxGeometry relative="1" as="geometry" />
        </mxCell>
        <mxCell id="-xSOWlBWt_rG__MBIkbI-15" style="edgeStyle=orthogonalEdgeStyle;rounded=0;orthogonalLoop=1;jettySize=auto;html=1;exitX=0.5;exitY=1;exitDx=0;exitDy=0;entryX=0.5;entryY=0;entryDx=0;entryDy=0;entryPerimeter=0;" edge="1" parent="1" source="-xSOWlBWt_rG__MBIkbI-3" target="-xSOWlBWt_rG__MBIkbI-5">
          <mxGeometry relative="1" as="geometry" />
        </mxCell>
        <mxCell id="-xSOWlBWt_rG__MBIkbI-17" value="SISTEMA&amp;nbsp; HOSPITAL( MESA DE AYUDA)&amp;nbsp;&lt;div&gt;NIVEL 0&lt;/div&gt;" style="text;html=1;align=center;verticalAlign=middle;whiteSpace=wrap;rounded=0;" vertex="1" parent="1">
          <mxGeometry x="170" y="30" width="480" height="90" as="geometry" />
        </mxCell>
      </root>
    </mxGraphModel>
  </diagram>
</mxfile>
